<mxfile host="65bd71144e">
    <diagram id="ielIaDDTcuhsFTaBM5YB" name="第 1 页">
        <mxGraphModel dx="876" dy="591" grid="1" gridSize="10" guides="0" tooltips="1" connect="1" arrows="1" fold="1" page="1" pageScale="1" pageWidth="827" pageHeight="1169" background="#FFFFFF" math="0" shadow="0">
            <root>
                <mxCell id="0"/>
                <mxCell id="1" parent="0"/>
                <mxCell id="4" value="文件夹1" style="swimlane;fillColor=#ffe6cc;strokeColor=#d79b00;rounded=1;swimlaneFillColor=#bdb2e6;" parent="1" vertex="1">
                    <mxGeometry x="90" y="290" width="580" height="110" as="geometry">
                        <mxRectangle x="90" y="50" width="100" height="30" as="alternateBounds"/>
                    </mxGeometry>
                </mxCell>
                <mxCell id="3" value="CBB1" style="rounded=1;whiteSpace=wrap;html=1;" parent="4" vertex="1">
                    <mxGeometry x="30" y="40" width="120" height="40" as="geometry"/>
                </mxCell>
                <mxCell id="8" value="CBB2" style="rounded=1;whiteSpace=wrap;html=1;" parent="4" vertex="1">
                    <mxGeometry x="160" y="40" width="120" height="40" as="geometry"/>
                </mxCell>
                <mxCell id="12" value="导弹数据预处理" style="rounded=1;whiteSpace=wrap;html=1;fillColor=#0050ef;strokeColor=#001DBC;fontColor=#ffffff;arcSize=19;" parent="4" vertex="1">
                    <mxGeometry x="310" y="40" width="120" height="40" as="geometry"/>
                </mxCell>
                <mxCell id="6" value="文件夹2" style="swimlane;fillColor=#dae8fc;strokeColor=#6c8ebf;rounded=1;" parent="1" vertex="1">
                    <mxGeometry x="90" y="170" width="580" height="110" as="geometry">
                        <mxRectangle x="90" y="180" width="70" height="30" as="alternateBounds"/>
                    </mxGeometry>
                </mxCell>
                <mxCell id="7" value="CBB3" style="rounded=1;whiteSpace=wrap;html=1;" parent="6" vertex="1">
                    <mxGeometry x="30" y="40" width="120" height="40" as="geometry"/>
                </mxCell>
                <mxCell id="9" value="CBB4" style="rounded=1;whiteSpace=wrap;html=1;" parent="6" vertex="1">
                    <mxGeometry x="170" y="40" width="120" height="40" as="geometry"/>
                </mxCell>
                <mxCell id="17" value="导弹性能指标计算" style="text;whiteSpace=wrap;html=1;" vertex="1" parent="6">
                    <mxGeometry x="320" y="40" width="130" height="40" as="geometry"/>
                </mxCell>
                <mxCell id="18" value="NTS目标跟踪" style="text;whiteSpace=wrap;html=1;" vertex="1" parent="6">
                    <mxGeometry x="460" y="40" width="110" height="40" as="geometry"/>
                </mxCell>
            </root>
        </mxGraphModel>
    </diagram>
</mxfile>